<svg xmlns="http://www.w3.org/2000/svg" xmlns:xlink="http://www.w3.org/1999/xlink" width="200" zoomAndPan="magnify" viewBox="0 0 150 149.999998" height="200" preserveAspectRatio="xMidYMid meet" version="1.0"><path fill="#98c662" d="M 150.035156 75.03125 C 150.035156 93.667969 143.226562 110.734375 131.972656 123.851562 C 128.34375 128.078125 124.246094 131.902344 119.777344 135.222656 C 107.289062 144.53125 91.804688 150.035156 75.035156 150.035156 C 64.316406 150.035156 54.132812 147.789062 44.910156 143.738281 C 39.691406 141.449219 34.785156 138.585938 30.269531 135.222656 C 25.808594 131.890625 21.722656 128.078125 18.09375 123.855469 C 6.839844 110.738281 0.0234375 93.675781 0.0234375 75.03125 C 0.0234375 33.605469 33.609375 0.0234375 75.035156 0.0234375 C 103.460938 0.0234375 128.191406 15.839844 140.914062 39.15625 C 146.730469 49.808594 150.035156 62.035156 150.035156 75.03125 Z M 150.035156 75.03125 " fill-opacity="1" fill-rule="nonzero"/><path fill="#58b465" d="M 150.035156 75.03125 C 150.035156 93.667969 143.226562 110.734375 131.972656 123.851562 C 128.34375 128.078125 124.246094 131.902344 119.777344 135.222656 C 107.289062 144.53125 91.804688 150.035156 75.035156 150.035156 C 64.316406 150.035156 54.132812 147.789062 44.910156 143.738281 L 78.550781 29.6875 L 95.96875 29.945312 L 84.496094 17.175781 L 140.914062 39.148438 C 146.730469 49.808594 150.035156 62.035156 150.035156 75.03125 Z M 150.035156 75.03125 " fill-opacity="1" fill-rule="nonzero"/><path fill="#fbcb98" d="M 49.804688 50.792969 C 49.058594 49.972656 47.910156 49.585938 47.265625 50.710938 C 46.335938 52.320312 46.429688 54.484375 46.5625 56.265625 C 46.675781 57.707031 46.851562 59.152344 47.230469 60.558594 C 47.550781 61.769531 48 63.441406 49.082031 64.191406 C 49.328125 64.363281 49.664062 64.535156 49.972656 64.597656 C 50.144531 64.632812 51.179688 64.652344 50.828125 64.203125 " fill-opacity="1" fill-rule="nonzero"/><path fill="#fbcb98" d="M 100.171875 50.792969 C 100.917969 49.972656 102.066406 49.585938 102.710938 50.710938 C 103.640625 52.320312 103.546875 54.484375 103.414062 56.265625 C 103.300781 57.707031 103.125 59.152344 102.746094 60.558594 C 102.425781 61.769531 101.976562 63.441406 100.894531 64.191406 C 100.648438 64.363281 100.3125 64.535156 100 64.597656 C 99.832031 64.632812 98.796875 64.652344 99.148438 64.203125 " fill-opacity="1" fill-rule="nonzero"/><path fill="#ecc090" d="M 131.972656 123.851562 C 128.34375 128.078125 124.25 131.902344 119.777344 135.222656 L 30.269531 135.222656 C 25.800781 131.890625 21.714844 128.078125 18.09375 123.855469 C 21.492188 115.195312 28.695312 108.285156 37.984375 105.453125 L 53.449219 99.515625 C 59.421875 97.550781 59.152344 94.246094 59.152344 87.953125 L 59.152344 74.570312 L 90.898438 74.570312 L 90.898438 87.941406 C 90.898438 94.238281 91.21875 97.980469 97.203125 99.9375 L 112.097656 105.433594 C 121.386719 108.28125 128.585938 115.191406 131.972656 123.851562 Z M 131.972656 123.851562 " fill-opacity="1" fill-rule="nonzero"/><path fill="#ffdd3c" d="M 112.097656 105.433594 L 99.867188 100.917969 C 87.5 113.484375 59.988281 114.417969 50.828125 100.519531 L 37.984375 105.453125 C 28.695312 108.285156 21.492188 115.195312 18.09375 123.855469 C 31.847656 139.878906 52.25 150.035156 75.03125 150.035156 C 97.808594 150.035156 118.210938 139.878906 131.964844 123.851562 C 128.585938 115.191406 121.382812 108.28125 112.097656 105.433594 Z M 112.097656 105.433594 " fill-opacity="1" fill-rule="nonzero"/><path fill="#fbcb98" d="M 100.300781 48.0625 C 100.238281 30.140625 89.242188 20.039062 75.054688 20.039062 C 75.046875 20.039062 75.054688 22.816406 75.054688 20.039062 C 75.054688 20.035156 75.058594 20.039062 75.054688 20.039062 C 60.871094 20.039062 49.867188 30.140625 49.804688 48.0625 C 49.773438 56.238281 50.058594 61.617188 50.886719 67.550781 C 53.46875 85.988281 70.441406 91.160156 75.023438 91.160156 C 80.640625 91.160156 96.632812 85.988281 99.214844 67.550781 C 100.050781 61.617188 100.332031 56.238281 100.300781 48.0625 Z M 100.300781 48.0625 " fill-opacity="1" fill-rule="nonzero"/><path fill="#092838" d="M 102.007812 46.210938 C 101.984375 45.324219 101.941406 44.453125 101.882812 43.617188 C 101.652344 40.34375 100.84375 37.351562 99.789062 34.257812 C 99.300781 32.816406 99.078125 29.929688 98.019531 28.800781 C 94.476562 25.015625 92.652344 31.59375 91.628906 33.738281 C 90.933594 35.199219 91.746094 38.996094 91.921875 40.597656 C 92.191406 43.019531 92.761719 45.292969 93.78125 47.511719 C 95.761719 51.828125 99.136719 54.707031 98.8125 59.917969 C 99.347656 60.183594 100.019531 59.753906 100.238281 59.195312 C 101.730469 55.355469 102.113281 50.539062 102.007812 46.210938 Z M 102.007812 46.210938 " fill-opacity="1" fill-rule="nonzero"/><path fill="#092838" d="M 52.445312 54.71875 C 53.144531 54.003906 54.027344 53.414062 54.738281 52.691406 C 57.195312 50.210938 56.289062 47.097656 57.953125 44.371094 C 58.847656 42.90625 60.78125 41.929688 62.316406 42.683594 C 64.085938 43.554688 64.453125 46.136719 66.214844 47.011719 C 66.710938 47.257812 67.269531 47.339844 67.816406 47.398438 C 72.523438 47.917969 77.394531 46.875 81.480469 44.476562 C 80.878906 45.371094 80.898438 46.632812 81.519531 47.511719 C 87.382812 45.988281 92.734375 42.53125 96.527344 37.808594 C 99.480469 34.132812 98.398438 29.777344 96.007812 26.011719 C 95.226562 24.785156 94.320312 23.597656 93.105469 22.792969 C 91.621094 21.808594 89.8125 21.480469 88.058594 21.167969 C 86.261719 20.851562 84.460938 20.53125 82.65625 20.214844 C 83.320312 19.355469 84.101562 18.59375 84.972656 17.945312 C 80.890625 16.671875 76.511719 18.453125 72.230469 18.308594 C 72.371094 17.132812 72.953125 16.015625 73.839844 15.230469 C 70.953125 15.277344 68.078125 15.769531 65.339844 16.65625 C 61.300781 17.964844 57.535156 20.117188 54.371094 22.949219 C 52.984375 24.195312 51.257812 25.683594 50.542969 27.429688 C 49.78125 29.304688 49.296875 31.574219 48.886719 33.570312 C 46.992188 42.878906 48.488281 52.421875 48.746094 61.800781 C 48.757812 62.199219 48.792969 62.65625 49.109375 62.90625 C 49.457031 63.179688 50.003906 63.046875 50.308594 62.722656 C 50.617188 62.398438 50.738281 61.945312 50.828125 61.511719 C 50.972656 60.800781 51.0625 60.078125 51.089844 59.351562 C 51.140625 58.234375 51.054688 57.070312 51.507812 56.042969 C 51.726562 55.542969 52.054688 55.113281 52.445312 54.71875 Z M 52.445312 54.71875 " fill-opacity="1" fill-rule="nonzero"/></svg>