<svg xmlns="http://www.w3.org/2000/svg" xmlns:xlink="http://www.w3.org/1999/xlink" width="40" zoomAndPan="magnify" viewBox="0 0 30 30.000001" height="40" preserveAspectRatio="xMidYMid meet" version="1.0"><defs><clipPath id="c40a397448"><path d="M 2.703125 2.21875 L 27.296875 2.21875 L 27.296875 26.8125 L 2.703125 26.8125 Z M 2.703125 2.21875 " clip-rule="nonzero"/></clipPath><clipPath id="21896709ab"><path d="M 15 2.21875 C 8.207031 2.21875 2.703125 7.726562 2.703125 14.515625 C 2.703125 21.308594 8.207031 26.8125 15 26.8125 C 21.792969 26.8125 27.296875 21.308594 27.296875 14.515625 C 27.296875 7.726562 21.792969 2.21875 15 2.21875 " clip-rule="nonzero"/></clipPath></defs><g clip-path="url(#c40a397448)"><g clip-path="url(#21896709ab)"><path fill="#201c41" d="M 2.703125 2.21875 L 27.296875 2.21875 L 27.296875 26.8125 L 2.703125 26.8125 Z M 2.703125 2.21875 " fill-opacity="1" fill-rule="nonzero"/></g></g><path stroke-linecap="round" transform="matrix(0.732895, -0.000000000000000063, 0.000000000000000062, 0.725806, 7.450841, 7.590429)" fill="none" stroke-linejoin="miter" d="M 2.001823 2.001278 L 18.801628 2.001278 " stroke="#ffffff" stroke-width="4" stroke-opacity="1" stroke-miterlimit="4"/><path stroke-linecap="round" transform="matrix(0.732895, 0, 0, 0.725806, 7.450841, 13.064518)" fill="none" stroke-linejoin="miter" d="M 2.001823 1.999303 L 18.801628 1.999303 " stroke="#ffffff" stroke-width="4" stroke-opacity="1" stroke-miterlimit="4"/><path stroke-linecap="round" transform="matrix(0.732895, 0, 0, 0.725806, 7.450841, 18.187202)" fill="none" stroke-linejoin="miter" d="M 2.001823 2.002494 L 18.801628 2.002494 " stroke="#ffffff" stroke-width="4" stroke-opacity="1" stroke-miterlimit="4"/></svg>